<?xml version="1.0" encoding="UTF-8" standalone="no"?>
<!DOCTYPE svg PUBLIC "-//W3C//DTD SVG 1.1//EN" "http://www.w3.org/Graphics/SVG/1.1/DTD/svg11.dtd">
<svg width="100%" height="100%" viewBox="0 0 57 57" version="1.1" xmlns="http://www.w3.org/2000/svg" xmlns:xlink="http://www.w3.org/1999/xlink" xml:space="preserve" xmlns:serif="http://www.serif.com/" style="fill-rule:evenodd;clip-rule:evenodd;stroke-linejoin:round;stroke-miterlimit:2;">
    <g>
        <path d="M28.2,16.7C21.2,16.7 15.4,22.4 15.4,29.5C15.4,36.6 21.1,42.3 28.2,42.3C35.3,42.3 41,36.5 41,29.5C41,22.5 35.2,16.7 28.2,16.7ZM28.2,37.7C23.7,37.7 20,34 20,29.5C20,25 23.7,21.3 28.2,21.3C32.7,21.3 36.4,25 36.4,29.5C36.4,34 32.7,37.7 28.2,37.7Z" style="fill:white;fill-rule:nonzero;"/>
        <circle cx="41.5" cy="16.4" r="2.9" style="fill:white;"/>
        <path d="M49,8.9C46.4,6.2 42.7,4.8 38.5,4.8L17.9,4.8C9.2,4.8 3.4,10.6 3.4,19.3L3.4,39.8C3.4,44.1 4.8,47.8 7.6,50.5C10.3,53.1 13.9,54.4 18,54.4L38.4,54.4C42.7,54.4 46.3,53 48.9,50.5C51.6,47.9 53,44.2 53,39.9L53,19.3C53,15.1 51.6,11.5 49,8.9ZM48.6,39.9C48.6,43 47.5,45.5 45.7,47.2C43.9,48.9 41.4,49.8 38.4,49.8L18,49.8C15,49.8 12.5,48.9 10.7,47.2C8.9,45.4 8,42.9 8,39.8L8,19.3C8,16.3 8.9,13.8 10.7,12C12.4,10.3 15,9.4 18,9.4L38.6,9.4C41.6,9.4 44.1,10.3 45.9,12.1C47.6,13.9 48.6,16.4 48.6,19.3L48.6,39.9Z" style="fill:white;fill-rule:nonzero;"/>
    </g>
</svg>
