<?xml version="1.0" encoding="UTF-8" standalone="no"?>
<!DOCTYPE svg PUBLIC "-//W3C//DTD SVG 1.1//EN" "http://www.w3.org/Graphics/SVG/1.1/DTD/svg11.dtd">
<svg width="100%" height="100%" viewBox="0 0 512 512" version="1.1" xmlns="http://www.w3.org/2000/svg" xmlns:xlink="http://www.w3.org/1999/xlink" xml:space="preserve" xmlns:serif="http://www.serif.com/" style="fill-rule:evenodd;clip-rule:evenodd;stroke-linejoin:round;stroke-miterlimit:2;">
    <path id="Dark_Blue" d="M448,512L64,512C28.672,512 0,483.328 0,448L0,64C0,28.672 28.672,0 64,0L448,0C483.328,0 512,28.672 512,64L512,448C512,483.328 483.328,512 448,512ZM196.608,386.048C317.312,386.048 383.36,285.952 383.36,199.296C383.36,196.48 383.36,193.664 383.232,190.848C396.032,181.632 407.168,169.984 416,156.8C404.224,162.048 391.552,165.504 378.24,167.168C391.808,159.104 402.176,146.176 407.168,130.816C394.496,138.368 380.416,143.744 365.44,146.688C353.408,133.888 336.384,125.952 317.568,125.952C281.344,125.952 251.904,155.392 251.904,191.616C251.904,196.736 252.544,201.728 253.568,206.592C199.04,203.904 150.656,177.664 118.272,137.984C112.64,147.712 109.44,158.976 109.44,171.008C109.44,193.792 121.088,213.888 138.624,225.664C127.872,225.28 117.76,222.336 108.928,217.472L108.928,218.368C108.928,250.112 131.584,276.736 161.536,282.752C156.032,284.288 150.272,285.056 144.256,285.056C140.032,285.056 135.936,284.672 131.968,283.904C140.288,310.016 164.608,328.96 193.28,329.472C170.752,347.136 142.464,357.632 111.744,357.632C106.496,357.632 101.248,357.376 96.128,356.736C125.056,375.168 159.616,386.048 196.608,386.048Z" style="fill:white;fill-rule:nonzero;"/>
</svg>
